<svg width="60" height="61" viewBox="0 0 60 61" fill="none" xmlns="http://www.w3.org/2000/svg">
<g opacity="0.99">
<rect y="0.5" width="60" height="60" rx="30" fill="#DB2245"/>
<path d="M18.9722 38.1387C17.8983 39.2127 17.8983 40.9539 18.9722 42.0278C20.0461 43.1018 21.7873 43.1018 22.8613 42.0278L18.9722 38.1387ZM32.4446 32.4445C33.5186 31.3706 33.5186 29.6294 32.4446 28.5554C31.3707 27.4815 29.6295 27.4815 28.5555 28.5554L32.4446 32.4445ZM28.5555 28.5554C27.4816 29.6294 27.4816 31.3706 28.5555 32.4445C29.6295 33.5184 31.3707 33.5184 32.4446 32.4445L28.5555 28.5554ZM42.028 22.8612C43.1019 21.7872 43.1019 20.046 42.028 18.9721C40.954 17.8981 39.2128 17.8981 38.1389 18.9721L42.028 22.8612ZM32.4446 28.5554C31.3707 27.4815 29.6295 27.4815 28.5555 28.5554C27.4816 29.6294 27.4816 31.3706 28.5555 32.4445L32.4446 28.5554ZM38.1389 42.0278C39.2128 43.1018 40.954 43.1018 42.028 42.0278C43.1019 40.9539 43.1019 39.2127 42.028 38.1387L38.1389 42.0278ZM28.5555 32.4445C29.6295 33.5184 31.3707 33.5184 32.4446 32.4445C33.5186 31.3706 33.5186 29.6294 32.4446 28.5554L28.5555 32.4445ZM22.8613 18.9721C21.7873 17.8981 20.0461 17.8981 18.9722 18.9721C17.8983 20.046 17.8983 21.7872 18.9722 22.8612L22.8613 18.9721ZM22.8613 42.0278L32.4446 32.4445L28.5555 28.5554L18.9722 38.1387L22.8613 42.0278ZM32.4446 32.4445L42.028 22.8612L38.1389 18.9721L28.5555 28.5554L32.4446 32.4445ZM28.5555 32.4445L38.1389 42.0278L42.028 38.1387L32.4446 28.5554L28.5555 32.4445ZM32.4446 28.5554L22.8613 18.9721L18.9722 22.8612L28.5555 32.4445L32.4446 28.5554Z" fill="white"/>
</g>
</svg>
