<svg width="23" height="24" viewBox="0 0 23 24" fill="none" xmlns="http://www.w3.org/2000/svg">
<g clip-path="url(#clip0_551_3523)">
<path d="M11.5 21.0625L11.4985 21.0625C10.4466 21.064 9.39891 20.9275 8.38245 20.6564L8.01299 20.5579L7.67204 20.731C7.01721 21.0634 5.52675 21.709 3.04533 22.2104C3.41472 21.1249 3.71517 19.8825 3.82735 18.7075L3.87205 18.2393L3.53984 17.9063C1.94239 16.3049 1 14.2373 1 12C1 7.11618 5.57178 2.9375 11.5 2.9375C17.4282 2.9375 22 7.11618 22 12C22 16.8838 17.4282 21.0625 11.5 21.0625ZM8.12475 21.6226C9.22575 21.9163 10.3605 22.0642 11.5 22.0625L2.116 23.3965C5.359 22.8646 7.28669 22.0481 8.12475 21.6226Z" fill="white" stroke="black" stroke-width="2"/>
</g>
<defs>
<clipPath id="clip0_551_3523">
<rect width="23" height="23" fill="white" transform="translate(0 0.5)"/>
</clipPath>
</defs>
</svg>
