<svg width="22" height="20" viewBox="0 0 22 20" fill="none" xmlns="http://www.w3.org/2000/svg">
<path d="M10.2834 17.8541C10.4719 18.0475 10.7306 18.1565 11.0006 18.1563C11.2707 18.156 11.5291 18.0466 11.7172 17.8528L15.125 14.3423L15.1265 14.3408L18.5098 10.8408L18.5099 10.8408L18.5172 10.8331C20.7125 8.51317 20.7125 4.8822 18.5172 2.56227C18.5063 2.55079 18.4952 2.53956 18.4838 2.5286C17.3874 1.47488 15.9024 0.924236 14.3841 1.00841C13.1158 1.07872 11.9196 1.58668 10.9928 2.43309C10.0676 1.59298 8.87601 1.08892 7.61299 1.01891C6.09466 0.934736 4.60965 1.48538 3.51325 2.5391C3.50185 2.55006 3.49071 2.56129 3.47984 2.57277C1.28455 4.8927 1.28455 8.52367 3.47984 10.8436L3.4798 10.8436L3.4872 10.8513L6.87053 14.3513L6.87328 14.3541L10.2834 17.8541Z" fill="#DB2245" stroke="black" stroke-width="2" stroke-linecap="round" stroke-linejoin="round"/>
</svg>
