<svg width="33" height="33" viewBox="0 0 33 33" fill="none" xmlns="http://www.w3.org/2000/svg">
<path d="M0 9.28125C0 8.46074 0.325948 7.67383 0.906138 7.09364C1.48633 6.51345 2.27324 6.1875 3.09375 6.1875H29.9062C30.7268 6.1875 31.5137 6.51345 32.0939 7.09364C32.6741 7.67383 33 8.46074 33 9.28125V12.375C33 12.6485 32.8913 12.9108 32.698 13.1042C32.5046 13.2976 32.2423 13.4062 31.9688 13.4062C31.1482 13.4062 30.3613 13.7322 29.7811 14.3124C29.2009 14.8926 28.875 15.6795 28.875 16.5C28.875 17.3205 29.2009 18.1074 29.7811 18.6876C30.3613 19.2678 31.1482 19.5938 31.9688 19.5938C32.2423 19.5938 32.5046 19.7024 32.698 19.8958C32.8913 20.0892 33 20.3515 33 20.625V23.7188C33 24.5393 32.6741 25.3262 32.0939 25.9064C31.5137 26.4866 30.7268 26.8125 29.9062 26.8125H3.09375C2.27324 26.8125 1.48633 26.4866 0.906138 25.9064C0.325948 25.3262 0 24.5393 0 23.7188L0 20.625C0 20.3515 0.108649 20.0892 0.302046 19.8958C0.495443 19.7024 0.757746 19.5938 1.03125 19.5938C1.85176 19.5938 2.63867 19.2678 3.21886 18.6876C3.79905 18.1074 4.125 17.3205 4.125 16.5C4.125 15.6795 3.79905 14.8926 3.21886 14.3124C2.63867 13.7322 1.85176 13.4062 1.03125 13.4062C0.757746 13.4062 0.495443 13.2976 0.302046 13.1042C0.108649 12.9108 0 12.6485 0 12.375V9.28125ZM8.25 7.21875V9.28125H10.3125V7.21875H8.25ZM10.3125 13.4062V11.3438H8.25V13.4062H10.3125ZM24.75 13.4062V11.3438H22.6875V13.4062H24.75ZM22.6875 9.28125H24.75V7.21875H22.6875V9.28125ZM10.3125 15.4688H8.25V17.5312H10.3125V15.4688ZM24.75 17.5312V15.4688H22.6875V17.5312H24.75ZM10.3125 19.5938H8.25V21.6562H10.3125V19.5938ZM24.75 21.6562V19.5938H22.6875V21.6562H24.75ZM8.25 23.7188V25.7812H10.3125V23.7188H8.25ZM22.6875 25.7812H24.75V23.7188H22.6875V25.7812Z" fill="black"/>
</svg>
