<svg width="29" height="29" viewBox="0 0 29 29" fill="none" xmlns="http://www.w3.org/2000/svg">
<path d="M14.5 27.9998C11.4578 24.6505 7.33213 22.4811 2.84849 21.8729C2.33816 21.8165 1.86682 21.573 1.52547 21.1894C1.18411 20.8059 0.996923 20.3095 1.00004 19.796V3.07683C1.00002 2.77684 1.06499 2.48041 1.19047 2.20792C1.31596 1.93544 1.49899 1.69337 1.72696 1.49838C1.95092 1.30693 2.21305 1.16532 2.49594 1.08296C2.77882 1.0006 3.076 0.979373 3.36772 1.02069C7.65509 1.73225 11.5772 3.86892 14.5 7.08528V27.9998Z" fill="#68D69D" stroke="white" stroke-linecap="round" stroke-linejoin="round"/>
<path d="M14.5 27.9998C17.5422 24.6505 21.6679 22.4811 26.1515 21.8729C26.6618 21.8165 27.1332 21.573 27.4745 21.1894C27.8159 20.8059 28.0031 20.3095 28 19.796V3.07683C28 2.77684 27.935 2.48041 27.8095 2.20792C27.684 1.93544 27.501 1.69337 27.273 1.49838C27.0491 1.30693 26.787 1.16532 26.5041 1.08296C26.2212 1.0006 25.924 0.979373 25.6323 1.02069C21.3449 1.73225 17.4228 3.86892 14.5 7.08528V27.9998Z" fill="#68D69D" stroke="white" stroke-linecap="round" stroke-linejoin="round"/>
</svg>
