<svg width="29" height="29" viewBox="0 0 29 29" fill="none" xmlns="http://www.w3.org/2000/svg">
<path d="M14.5 27.9998C11.4578 24.6505 7.33213 22.481 2.84849 21.8729C2.33816 21.8164 1.86682 21.5729 1.52547 21.1894C1.18411 20.8058 0.996923 20.3094 1.00004 19.796V3.07679C1.00002 2.7768 1.06499 2.48036 1.19047 2.20788C1.31596 1.93539 1.49899 1.69333 1.72696 1.49833C1.95092 1.30688 2.21305 1.16528 2.49594 1.08292C2.77882 1.00056 3.076 0.979328 3.36772 1.02064C7.65509 1.73221 11.5772 3.86888 14.5 7.08524V27.9998Z" fill="black" stroke="white" stroke-linecap="round" stroke-linejoin="round"/>
<path d="M14.5 27.9998C17.5422 24.6505 21.6679 22.481 26.1515 21.8729C26.6618 21.8164 27.1332 21.5729 27.4745 21.1894C27.8159 20.8058 28.0031 20.3094 28 19.796V3.07679C28 2.7768 27.935 2.48036 27.8095 2.20788C27.684 1.93539 27.501 1.69333 27.273 1.49833C27.0491 1.30688 26.787 1.16528 26.5041 1.08292C26.2212 1.00056 25.924 0.979328 25.6323 1.02064C21.3449 1.73221 17.4228 3.86888 14.5 7.08524V27.9998Z" fill="black" stroke="white" stroke-linecap="round" stroke-linejoin="round"/>
</svg>
