<svg width="56" height="57" viewBox="0 0 56 57" fill="none" xmlns="http://www.w3.org/2000/svg">
<rect y="0.5" width="56" height="56" rx="28" fill="#E3CE0E"/>
<path fill-rule="evenodd" clip-rule="evenodd" d="M31.5025 35.4829L39.5399 28.7462C39.8572 28.4869 40.0412 28.0988 40.0412 27.6891C40.0412 27.2794 39.8572 26.8913 39.5399 26.632L31.5025 19.8954C31.0738 19.5289 30.4736 19.4391 29.9564 19.6639C29.4392 19.8888 29.0956 20.389 29.0712 20.9524V23.6095C17.7873 21.6548 14.9583 31.7526 14.9583 37.4537C17.5759 33.1107 24.3591 25.2381 29.0712 31.7526V34.4168C29.0923 34.9819 29.4347 35.4851 29.9526 35.7122C30.4705 35.9392 31.0726 35.8501 31.5025 35.4829Z" fill="white"/>
</svg>
