<svg width="28" height="28" viewBox="0 0 28 28" fill="none" xmlns="http://www.w3.org/2000/svg">
<path d="M13.2834 22.8541C13.4719 23.0475 13.7306 23.1565 14.0006 23.1563C14.2707 23.156 14.5291 23.0466 14.7172 22.8528L18.125 19.3423L18.1265 19.3408L21.5098 15.8408L21.5099 15.8408L21.5172 15.8331C23.7125 13.5132 23.7125 9.8822 21.5172 7.56227C21.5063 7.55079 21.4952 7.53956 21.4838 7.5286C20.3874 6.47488 18.9024 5.92424 17.3841 6.00841C16.1158 6.07872 14.9196 6.58668 13.9928 7.43309C13.0676 6.59298 11.876 6.08892 10.613 6.01891C9.09466 5.93474 7.60965 6.48538 6.51325 7.5391C6.50185 7.55006 6.49071 7.56129 6.47984 7.57277C4.28455 9.8927 4.28455 13.5237 6.47984 15.8436L6.4798 15.8436L6.4872 15.8513L9.87053 19.3513L9.87328 19.3541L13.2834 22.8541Z" fill="white" stroke="black" stroke-width="2" stroke-linecap="round" stroke-linejoin="round"/>
</svg>
